<?xml version="1.0" encoding="UTF-8" standalone="no"?>
<svg width="200" height="50" viewBox="0 0 200 50" fill="none" xmlns="http://www.w3.org/2000/svg">
  <!-- T icon -->
  <circle cx="25" cy="25" r="20" fill="#6366F1" />
  <path d="M33 15H17C16.4477 15 16 15.4477 16 16V19C16 19.5523 16.4477 20 17 20H23V35C23 35.5523 23.4477 36 24 36H26C26.5523 36 27 35.5523 27 35V20H33C33.5523 20 34 19.5523 34 19V16C34 15.4477 33.5523 15 33 15Z" fill="white" />
  
  <!-- Text "ralla" -->
  <path d="M52.9453 36V18.7734H58.0625V22.5938H58.1953C58.6797 21.2344 59.4453 20.1953 60.4922 19.4766C61.5391 18.7578 62.7734 18.3984 64.1953 18.3984C65.6328 18.3984 66.8594 18.7734 67.875 19.5234C68.8906 20.2734 69.5781 21.3281 69.9375 22.6875H70.0703C70.6016 21.3594 71.4453 20.3125 72.6016 19.5469C73.7578 18.7812 75.1016 18.3984 76.6328 18.3984C78.6172 18.3984 80.2109 18.9844 81.4141 20.1562C82.6172 21.3281 83.2188 23.1328 83.2188 25.5703V36H77.9062V26.6719C77.9062 25.3281 77.6094 24.3438 77.0156 23.7188C76.4219 23.0938 75.625 22.7812 74.625 22.7812C73.5156 22.7812 72.6328 23.1562 71.9766 23.9062C71.3203 24.6562 70.9922 25.6562 70.9922 26.9062V36H65.75V26.5391C65.75 25.3203 65.4531 24.3828 64.8594 23.7266C64.2656 23.0703 63.4609 22.7422 62.4453 22.7422C61.7891 22.7422 61.1953 22.8906 60.6641 23.1875C60.1328 23.4844 59.7188 23.9062 59.4219 24.4531C59.125 25 58.9766 25.6328 58.9766 26.3516V36H52.9453Z" fill="#6366F1" />
  <path d="M94.5469 36.375C92.3594 36.375 90.4844 35.9766 88.9219 35.1797C87.3594 34.3828 86.1641 33.2578 85.3359 31.8047C84.5078 30.3516 84.0938 28.6641 84.0938 26.7422C84.0938 24.8516 84.5078 23.1797 85.3359 21.7266C86.1641 20.2734 87.3594 19.1406 88.9219 18.3281C90.4844 17.5156 92.3594 17.1094 94.5469 17.1094C96.7344 17.1094 98.6094 17.5156 100.172 18.3281C101.734 19.1406 102.93 20.2734 103.758 21.7266C104.586 23.1797 105 24.8516 105 26.7422C105 28.6641 104.586 30.3516 103.758 31.8047C102.93 33.2578 101.734 34.3828 100.172 35.1797C98.6094 35.9766 96.7344 36.375 94.5469 36.375ZM94.5781 31.875C95.4844 31.875 96.2578 31.6484 96.8984 31.1953C97.5391 30.7422 98.0312 30.0938 98.375 29.25C98.7188 28.4062 98.8906 27.4219 98.8906 26.2969C98.8906 25.1719 98.7188 24.1875 98.375 23.3438C98.0312 22.5 97.5391 21.8516 96.8984 21.3984C96.2578 20.9453 95.4844 20.7188 94.5781 20.7188C93.6562 20.7188 92.8672 20.9453 92.2109 21.3984C91.5547 21.8516 91.0547 22.5 90.7109 23.3438C90.3672 24.1875 90.1953 25.1719 90.1953 26.2969C90.1953 27.4219 90.3672 28.4062 90.7109 29.25C91.0547 30.0938 91.5547 30.7422 92.2109 31.1953C92.8672 31.6484 93.6562 31.875 94.5781 31.875Z" fill="#6366F1" />
  <path d="M113.789 36H108.102V18.7734H113.664V22.5938H113.82C114.148 21.3125 114.789 20.3516 115.742 19.7109C116.695 19.0703 117.82 18.75 119.117 18.75C120.445 18.75 121.578 19.0703 122.516 19.7109C123.453 20.3516 124.117 21.3125 124.508 22.5938H124.664C125.086 21.3438 125.82 20.3906 126.867 19.7344C127.914 19.0781 129.102 18.75 130.43 18.75C132.258 18.75 133.727 19.3125 134.836 20.4375C135.945 21.5625 136.5 23.2812 136.5 25.5938V36H130.812V26.625C130.812 25.375 130.531 24.4531 129.969 23.8594C129.406 23.2656 128.695 22.9688 127.836 22.9688C126.898 22.9688 126.164 23.2969 125.633 23.9531C125.102 24.6094 124.836 25.5156 124.836 26.6719V36H119.25V26.5625C119.25 25.4375 118.977 24.5625 118.43 23.9375C117.883 23.3125 117.164 23 116.273 23C115.68 23 115.156 23.1406 114.703 23.4219C114.25 23.7031 113.898 24.1094 113.648 24.6406C113.398 25.1719 113.273 25.8125 113.273 26.5625V36H113.789Z" fill="#6366F1" />
  <path d="M147.789 36H142.102V18.7734H147.664V22.5938H147.82C148.148 21.3125 148.789 20.3516 149.742 19.7109C150.695 19.0703 151.82 18.75 153.117 18.75C154.445 18.75 155.578 19.0703 156.516 19.7109C157.453 20.3516 158.117 21.3125 158.508 22.5938H158.664C159.086 21.3438 159.82 20.3906 160.867 19.7344C161.914 19.0781 163.102 18.75 164.43 18.75C166.258 18.75 167.727 19.3125 168.836 20.4375C169.945 21.5625 170.5 23.2812 170.5 25.5938V36H164.812V26.625C164.812 25.375 164.531 24.4531 163.969 23.8594C163.406 23.2656 162.695 22.9688 161.836 22.9688C160.898 22.9688 160.164 23.2969 159.633 23.9531C159.102 24.6094 158.836 25.5156 158.836 26.6719V36H153.25V26.5625C153.25 25.4375 152.977 24.5625 152.43 23.9375C151.883 23.3125 151.164 23 150.273 23C149.68 23 149.156 23.1406 148.703 23.4219C148.25 23.7031 147.898 24.1094 147.648 24.6406C147.398 25.1719 147.273 25.8125 147.273 26.5625V36H147.789Z" fill="#6366F1" />
  <path d="M182.789 36.375C180.602 36.375 178.742 35.9844 177.211 35.2031C175.68 34.4219 174.5 33.3125 173.672 31.875C172.844 30.4375 172.43 28.7734 172.43 26.8828C172.43 25.0234 172.844 23.375 173.672 21.9375C174.5 20.5 175.664 19.3828 177.164 18.5859C178.664 17.7891 180.43 17.3906 182.461 17.3906C183.867 17.3906 185.164 17.6172 186.352 18.0703C187.539 18.5234 188.57 19.1953 189.445 20.0859C190.32 20.9766 191 22.0703 191.484 23.3672C191.969 24.6641 192.211 26.1562 192.211 27.8438V29.2969H174.93V25.9531H187.023C187.023 25.1719 186.859 24.4844 186.531 23.8906C186.203 23.2969 185.742 22.8359 185.148 22.5078C184.555 22.1797 183.867 22.0156 183.086 22.0156C182.273 22.0156 181.555 22.1953 180.93 22.5547C180.305 22.9141 179.82 23.4062 179.477 24.0312C179.133 24.6562 178.961 25.3594 178.961 26.1406V27.1328C178.961 28.1172 179.141 28.9531 179.5 29.6406C179.859 30.3281 180.375 30.8516 181.047 31.2109C181.719 31.5703 182.523 31.75 183.461 31.75C184.086 31.75 184.656 31.6562 185.172 31.4688C185.688 31.2812 186.125 31 186.484 30.625C186.844 30.25 187.102 29.7969 187.258 29.2656L192.023 29.5469C191.805 30.8594 191.312 32.0078 190.547 32.9922C189.781 33.9766 188.773 34.7422 187.523 35.2891C186.273 36.0078 184.68 36.375 182.789 36.375Z" fill="#6366F1" />
</svg>